HIERARCHY
ROOT ui
{
	 OFFSET 0 0 0
	 CHANNELS 3 XPosition YPosition Z Position
	 EndSite
	 {
	 OFFSET 0 -1 0
	 }
}
ROOT li
{
	 OFFSET 0 0 0
	 CHANNELS 3 XPosition YPosition Z Position
	 EndSite
	 {
	 OFFSET 0 -1 0
	 }
}
ROOT ul
{
	 OFFSET 0 0 0
	 CHANNELS 3 XPosition YPosition Z Position
	 EndSite
	 {
	 OFFSET 0 -1 0
	 }
}
ROOT ll
{
	 OFFSET 0 0 0
	 CHANNELS 3 XPosition YPosition Z Position
	 EndSite
	 {
	 OFFSET 0 -1 0
	 }
}
ROOT tt
{
	 OFFSET 0 0 0
	 CHANNELS 3 XPosition YPosition Z Position
	 EndSite
	 {
	 OFFSET 0 -1 0
	 }
}
ROOT tb
{
	 OFFSET 0 0 0
	 CHANNELS 3 XPosition YPosition Z Position
	 EndSite
	 {
	 OFFSET 0 -1 0
	 }
}
ROOT td
{
	 OFFSET 0 0 0
	 CHANNELS 3 XPosition YPosition Z Position
	 EndSite
	 {
	 OFFSET 0 -1 0
	 }
}
ROOT v
{
	 OFFSET 0 0 0
	 CHANNELS 3 XPosition YPosition Z Position
	 EndSite
	 {
	 OFFSET 0 -1 0
	 }
}
ROOT bn
{
	 OFFSET 0 0 0
	 CHANNELS 3 XPosition YPosition Z Position
	 EndSite
	 {
	 OFFSET 0 -1 0
	 }
}
MOTION
Frames: 16
Frame Time: 0.002
-0.008145225524902345	-0.004414790153503418	0		0.5056218872070313	-2.352699462890625	0		-0.939568115234375	0.4804351196289062	0		-0.5177459106445312	-2.59065380859375	0		1.5507060546875	-0.6079010620117188	0		3.163224365234375	-0.36304489135742185	0		4.44766748046875	-0.04867218780517578	0		5.990392578125	0.35059304809570313	0		-0.36055813598632813	5.93299072265625	0		
-0.0055814747810363765	-0.0010908429622650147	0		0.48208465576171877	-2.34505126953125	0		-0.930903076171875	0.4887386474609375	0		-0.5404512939453125	-2.593949462890625	0		1.5532427978515626	-0.6036825561523438	0		3.159902587890625	-0.3498533630371094	0		4.452076171875	-0.05667599105834961	0		5.99056689453125	0.3158996887207031	0		-0.32656838989257814	5.93791015625	0		
0.027973846435546876	-0.002264298915863037	0		0.5225062255859375	-2.344355712890625	0		-0.894300537109375	0.4885869445800781	0		-0.5169757080078125	-2.587947998046875	0		1.5468577880859375	-0.5974083251953125	0		3.180185302734375	-0.3690617980957031	0		4.45164453125	-0.056683372497558594	0		5.998095703125	0.3137062683105469	0		-0.19329582214355467	5.9583818359375	0		
-0.009418794631958008	-0.003522588014602661	0		0.46838629150390626	-2.314413818359375	0		-0.9407421875	0.4815184020996094	0		-0.5304373779296875	-2.58150439453125	0		1.5434068603515625	-0.60024560546875	0		3.179791748046875	-0.3690538635253906	0		4.44818896484375	-0.06272064208984375	0		5.99417578125	0.29793170166015626	0		-0.32654718017578127	5.93848046875	0		
0.015277381896972655	-0.00371929407119751	0		0.49185333251953123	-2.31962890625	0		-0.9040137939453124	0.48121755981445313	0		-0.530916259765625	-2.581314697265625	0		1.5171651611328125	-0.5928348388671875	0		3.179465087890625	-0.36911965942382813	0		4.4437998046875	-0.06881710815429687	0		5.99395849609375	0.2974783630371094	0		-0.3415640869140625	5.9298671875	0		
-0.005019260883331299	-0.008361298561096192	0		0.4692153625488281	-2.33727392578125	0		-0.9320933227539062	0.48974984741210936	0		-0.518406494140625	-2.587384033203125	0		1.5317684326171874	-0.602072265625	0		3.154115966796875	-0.37590737915039063	0		4.437455078125	-0.07695889282226563	0		5.99012744140625	0.27972149658203127	0		-0.3603282775878906	5.934234375	0		
0.026926074981689453	-0.001815495014190674	0		0.5078053588867187	-2.344857666015625	0		-0.9162969360351563	0.48358572387695314	0		-0.5455718994140625	-2.575968994140625	0		1.5256492919921876	-0.597091552734375	0		3.197808837890625	-0.3857420654296875	0		4.4393564453125	-0.07328651428222656	0		5.99368408203125	0.29619583129882815	0		-0.30890072631835935	5.94653466796875	0		
0.004901439189910889	0.001416882038116455	0		0.4441166687011719	-2.307062744140625	0		-0.9271917114257813	0.4937220764160156	0		-0.4887855224609375	-2.57482275390625	0		1.5375684814453126	-0.5954397583007812	0		3.176844482421875	-0.37672998046875	0		4.443111328125	-0.08570829010009766	0		5.97953125	0.32355352783203123	0		-0.31054193115234374	5.94950439453125	0		
0.019767921447753908	-0.0089518985748291	0		0.4689126281738281	-2.3126015625	0		-0.9322073974609375	0.48969522094726564	0		-0.569738037109375	-2.560792724609375	0		1.5104599609375	-0.6013026123046875	0		3.147663818359375	-0.38866375732421876	0		4.43903125	-0.09207701873779296	0		5.97588037109375	0.3072055358886719	0		-0.1788529052734375	5.97049462890625	0		
-0.00702782678604126	-7.973229885101319E-4	0		0.4688703918457031	-2.3128583984375	0		-0.9320927124023437	0.48951681518554685	0		-0.5018871765136719	-2.5679658203125	0		1.5314970703125	-0.6029188232421875	0		3.190481201171875	-0.4066854248046875	0		4.43911376953125	-0.09255623626708985	0		5.980107421875	0.2870480041503906	0		-0.3589576416015625	5.93485888671875	0		
0.02001194953918457	-0.009488153457641601	0		0.4419443359375	-2.310797119140625	0		-0.9268535766601562	0.4931874084472656	0		-0.5568662109375	-2.568452880859375	0		1.51959716796875	-0.6051258544921875	0		3.168592041015625	-0.4088313293457031	0		4.43903662109375	-0.10907947540283203	0		5.97238330078125	0.288008056640625	0		-0.3443615417480469	5.94437060546875	0		
-0.0035925679206848145	0.002483267068862915	0		0.44613812255859375	-2.3062470703125	0		-0.92155517578125	0.4967814025878906	0		-0.5265562133789062	-2.555236328125	0		1.5258919677734375	-0.5986505737304687	0		3.17889501953125	-0.4024837951660156	0		4.435166015625	-0.11558252716064453	0		5.98037255859375	0.2849177551269531	0		-0.30980572509765625	5.949521484375	0		
-0.003319164037704468	0.0020458159446716307	0		0.4463341674804687	-2.306699462890625	0		-0.9212651977539063	0.4963747253417969	0		-0.5603215942382812	-2.552164794921875	0		1.5202471923828125	-0.59205322265625	0		3.174938232421875	-0.4179684753417969	0		4.4305517578125	-0.1080972671508789	0		5.97799267578125	0.33061746215820315	0		-0.1770285949707031	5.9691826171875	0		
-0.006060235977172852	-0.0024077489376068116	0		0.4705225830078125	-2.312554443359375	0		-0.9259946899414062	0.4919712829589844	0		-0.5261109008789062	-2.556141845703125	0		1.514434814453125	-0.6004979858398437	0		3.1971123046875	-0.42785693359375	0		4.4375458984375	-0.1307959747314453	0		5.97454833984375	0.3123444519042969	0		-0.17755995178222655	5.96970361328125	0		
-0.008752900123596192	-0.0059164857864379885	0		0.44489215087890627	-2.30973583984375	0		-0.930579833984375	0.4955016174316406	0		-0.5706116333007812	-2.544037109375	0		1.511735107421875	-0.6040245971679687	0		3.156375244140625	-0.43385202026367187	0		4.43789501953125	-0.13140074157714843	0		5.9782607421875	0.2938428039550781	0		-0.19226817321777342	5.96037158203125	0		
-0.008375975608825683	-0.006518808841705323	0		0.47325030517578126	-2.311744384765625	0		-0.9252611694335937	0.4908277587890625	0		-0.555310302734375	-2.54985595703125	0		1.5210672607421876	-0.6077579956054687	0		3.178619140625	-0.44377426147460936	0		4.43215673828125	-0.13991783142089845	0		5.97139794921875	0.29304550170898436	0		-0.3431328430175781	5.94396044921875	0		
